<mxfile host="app.diagrams.net" modified="2023-09-24T20:42:19.869Z" agent="Mozilla/5.0 (Windows NT 10.0; Win64; x64; rv:109.0) Gecko/20100101 Firefox/117.0" etag="UjQ88aIkQF7mXt1M14pV" version="21.8.2" type="device">
  <diagram id="C5RBs43oDa-KdzZeNtuy" name="Page-1">
    <mxGraphModel dx="1185" dy="1801" grid="1" gridSize="10" guides="1" tooltips="1" connect="1" arrows="1" fold="1" page="1" pageScale="1" pageWidth="827" pageHeight="1169" math="0" shadow="0">
      <root>
        <mxCell id="WIyWlLk6GJQsqaUBKTNV-0" />
        <mxCell id="WIyWlLk6GJQsqaUBKTNV-1" parent="WIyWlLk6GJQsqaUBKTNV-0" />
        <mxCell id="7lQZ6cuEa3gYuC8RBQt1-16" style="edgeStyle=orthogonalEdgeStyle;rounded=0;orthogonalLoop=1;jettySize=auto;html=1;entryX=0;entryY=0.5;entryDx=0;entryDy=0;" parent="WIyWlLk6GJQsqaUBKTNV-1" source="WIyWlLk6GJQsqaUBKTNV-3" target="WIyWlLk6GJQsqaUBKTNV-7" edge="1">
          <mxGeometry relative="1" as="geometry" />
        </mxCell>
        <mxCell id="vkwP9ZsZmAzDQVg0gLiO-12" style="edgeStyle=orthogonalEdgeStyle;rounded=0;orthogonalLoop=1;jettySize=auto;html=1;entryX=0;entryY=0.5;entryDx=0;entryDy=0;" edge="1" parent="WIyWlLk6GJQsqaUBKTNV-1" source="WIyWlLk6GJQsqaUBKTNV-3" target="vkwP9ZsZmAzDQVg0gLiO-0">
          <mxGeometry relative="1" as="geometry">
            <Array as="points">
              <mxPoint x="170" y="-40" />
            </Array>
          </mxGeometry>
        </mxCell>
        <mxCell id="vkwP9ZsZmAzDQVg0gLiO-13" value="User places bet" style="edgeLabel;html=1;align=center;verticalAlign=middle;resizable=0;points=[];" vertex="1" connectable="0" parent="vkwP9ZsZmAzDQVg0gLiO-12">
          <mxGeometry x="0.2217" y="-1" relative="1" as="geometry">
            <mxPoint as="offset" />
          </mxGeometry>
        </mxCell>
        <mxCell id="WIyWlLk6GJQsqaUBKTNV-3" value="Browser 1" style="rounded=1;whiteSpace=wrap;html=1;fontSize=12;glass=0;strokeWidth=1;shadow=0;" parent="WIyWlLk6GJQsqaUBKTNV-1" vertex="1">
          <mxGeometry x="110" y="55" width="120" height="90" as="geometry" />
        </mxCell>
        <mxCell id="7lQZ6cuEa3gYuC8RBQt1-11" style="edgeStyle=orthogonalEdgeStyle;rounded=0;orthogonalLoop=1;jettySize=auto;html=1;" parent="WIyWlLk6GJQsqaUBKTNV-1" source="WIyWlLk6GJQsqaUBKTNV-7" target="7lQZ6cuEa3gYuC8RBQt1-10" edge="1">
          <mxGeometry relative="1" as="geometry">
            <Array as="points">
              <mxPoint x="630" y="100" />
            </Array>
          </mxGeometry>
        </mxCell>
        <mxCell id="7lQZ6cuEa3gYuC8RBQt1-14" value="When user joins into poker game" style="edgeLabel;html=1;align=center;verticalAlign=middle;resizable=0;points=[];" parent="7lQZ6cuEa3gYuC8RBQt1-11" vertex="1" connectable="0">
          <mxGeometry x="-0.1067" y="1" relative="1" as="geometry">
            <mxPoint x="13" y="1" as="offset" />
          </mxGeometry>
        </mxCell>
        <mxCell id="7lQZ6cuEa3gYuC8RBQt1-28" style="edgeStyle=orthogonalEdgeStyle;rounded=0;orthogonalLoop=1;jettySize=auto;html=1;entryX=0;entryY=0.5;entryDx=0;entryDy=0;" parent="WIyWlLk6GJQsqaUBKTNV-1" source="WIyWlLk6GJQsqaUBKTNV-7" target="7lQZ6cuEa3gYuC8RBQt1-27" edge="1">
          <mxGeometry relative="1" as="geometry" />
        </mxCell>
        <mxCell id="vkwP9ZsZmAzDQVg0gLiO-4" style="edgeStyle=orthogonalEdgeStyle;rounded=0;orthogonalLoop=1;jettySize=auto;html=1;entryX=1;entryY=0.5;entryDx=0;entryDy=0;" edge="1" parent="WIyWlLk6GJQsqaUBKTNV-1" source="WIyWlLk6GJQsqaUBKTNV-7" target="vkwP9ZsZmAzDQVg0gLiO-0">
          <mxGeometry relative="1" as="geometry">
            <Array as="points">
              <mxPoint x="635" y="-40" />
            </Array>
          </mxGeometry>
        </mxCell>
        <mxCell id="WIyWlLk6GJQsqaUBKTNV-7" value="Server (NodeJS Express)" style="rounded=1;whiteSpace=wrap;html=1;fontSize=12;glass=0;strokeWidth=1;shadow=0;" parent="WIyWlLk6GJQsqaUBKTNV-1" vertex="1">
          <mxGeometry x="560" y="80" width="150" height="40" as="geometry" />
        </mxCell>
        <mxCell id="7lQZ6cuEa3gYuC8RBQt1-29" style="edgeStyle=orthogonalEdgeStyle;rounded=0;orthogonalLoop=1;jettySize=auto;html=1;entryX=0.5;entryY=1;entryDx=0;entryDy=0;" parent="WIyWlLk6GJQsqaUBKTNV-1" source="7lQZ6cuEa3gYuC8RBQt1-10" target="WIyWlLk6GJQsqaUBKTNV-3" edge="1">
          <mxGeometry relative="1" as="geometry" />
        </mxCell>
        <mxCell id="7lQZ6cuEa3gYuC8RBQt1-30" value="Something happens on game and we have to inform user" style="edgeLabel;html=1;align=center;verticalAlign=middle;resizable=0;points=[];" parent="7lQZ6cuEa3gYuC8RBQt1-29" vertex="1" connectable="0">
          <mxGeometry x="-0.3407" y="-1" relative="1" as="geometry">
            <mxPoint as="offset" />
          </mxGeometry>
        </mxCell>
        <mxCell id="7lQZ6cuEa3gYuC8RBQt1-10" value="Websocket (Signal R)" style="rounded=1;whiteSpace=wrap;html=1;fontSize=12;glass=0;strokeWidth=1;shadow=0;" parent="WIyWlLk6GJQsqaUBKTNV-1" vertex="1">
          <mxGeometry x="550" y="270" width="160" height="70" as="geometry" />
        </mxCell>
        <mxCell id="7lQZ6cuEa3gYuC8RBQt1-27" value="Database (PostgreSQL?)" style="rounded=1;whiteSpace=wrap;html=1;fontSize=12;glass=0;strokeWidth=1;shadow=0;" parent="WIyWlLk6GJQsqaUBKTNV-1" vertex="1">
          <mxGeometry x="870" y="80" width="170" height="40" as="geometry" />
        </mxCell>
        <mxCell id="vkwP9ZsZmAzDQVg0gLiO-16" style="edgeStyle=orthogonalEdgeStyle;rounded=0;orthogonalLoop=1;jettySize=auto;html=1;entryX=0.5;entryY=1;entryDx=0;entryDy=0;" edge="1" parent="WIyWlLk6GJQsqaUBKTNV-1" source="vkwP9ZsZmAzDQVg0gLiO-0" target="vkwP9ZsZmAzDQVg0gLiO-14">
          <mxGeometry relative="1" as="geometry" />
        </mxCell>
        <mxCell id="vkwP9ZsZmAzDQVg0gLiO-0" value="Game starts to run at server" style="rounded=1;whiteSpace=wrap;html=1;fontSize=12;glass=0;strokeWidth=1;shadow=0;" vertex="1" parent="WIyWlLk6GJQsqaUBKTNV-1">
          <mxGeometry x="350" y="-60" width="170" height="40" as="geometry" />
        </mxCell>
        <mxCell id="vkwP9ZsZmAzDQVg0gLiO-18" style="edgeStyle=orthogonalEdgeStyle;rounded=0;orthogonalLoop=1;jettySize=auto;html=1;entryX=0;entryY=0.5;entryDx=0;entryDy=0;" edge="1" parent="WIyWlLk6GJQsqaUBKTNV-1" source="vkwP9ZsZmAzDQVg0gLiO-14" target="WIyWlLk6GJQsqaUBKTNV-3">
          <mxGeometry relative="1" as="geometry">
            <Array as="points">
              <mxPoint x="40" y="-145" />
              <mxPoint x="40" y="100" />
            </Array>
          </mxGeometry>
        </mxCell>
        <mxCell id="vkwP9ZsZmAzDQVg0gLiO-19" value="Response after data synchronizing (session)" style="edgeLabel;html=1;align=center;verticalAlign=middle;resizable=0;points=[];" vertex="1" connectable="0" parent="vkwP9ZsZmAzDQVg0gLiO-18">
          <mxGeometry x="-0.4594" y="2" relative="1" as="geometry">
            <mxPoint x="20" y="-2" as="offset" />
          </mxGeometry>
        </mxCell>
        <mxCell id="vkwP9ZsZmAzDQVg0gLiO-20" style="edgeStyle=orthogonalEdgeStyle;rounded=0;orthogonalLoop=1;jettySize=auto;html=1;entryX=0.5;entryY=0;entryDx=0;entryDy=0;" edge="1" parent="WIyWlLk6GJQsqaUBKTNV-1" source="vkwP9ZsZmAzDQVg0gLiO-14" target="7lQZ6cuEa3gYuC8RBQt1-27">
          <mxGeometry relative="1" as="geometry" />
        </mxCell>
        <mxCell id="vkwP9ZsZmAzDQVg0gLiO-21" value="Data is synchronized into database" style="edgeLabel;html=1;align=center;verticalAlign=middle;resizable=0;points=[];" vertex="1" connectable="0" parent="vkwP9ZsZmAzDQVg0gLiO-20">
          <mxGeometry x="-0.3702" y="1" relative="1" as="geometry">
            <mxPoint as="offset" />
          </mxGeometry>
        </mxCell>
        <mxCell id="vkwP9ZsZmAzDQVg0gLiO-14" value="Data is synchronized at server (session?)" style="rounded=1;whiteSpace=wrap;html=1;fontSize=12;glass=0;strokeWidth=1;shadow=0;" vertex="1" parent="WIyWlLk6GJQsqaUBKTNV-1">
          <mxGeometry x="307" y="-160" width="256" height="30" as="geometry" />
        </mxCell>
      </root>
    </mxGraphModel>
  </diagram>
</mxfile>
